<?xml version="1.0" encoding="UTF-8" standalone="no"?>
<!DOCTYPE svg PUBLIC "-//W3C//DTD SVG 1.1//EN" "http://www.w3.org/Graphics/SVG/1.1/DTD/svg11.dtd">
<svg width="100%" height="100%" viewBox="0 0 365 290" version="1.1" xmlns="http://www.w3.org/2000/svg" xmlns:xlink="http://www.w3.org/1999/xlink" xml:space="preserve" xmlns:serif="http://www.serif.com/" style="fill-rule:evenodd;clip-rule:evenodd;stroke-linejoin:round;stroke-miterlimit:2;">
    <g transform="matrix(-1,0,0,1,364.944,0)">
        <path id="background" d="M38.023,42.629C82.539,0.251 168.45,6.151 250.968,7.138C258.816,7.232 267.687,5.77 274.317,7.138C286.188,9.589 299.541,24.161 306.072,35.158C310.917,43.312 313.139,55.173 317.28,62.243C330.365,84.589 363.757,90.151 354.638,129.488C350.399,147.779 330.945,155.181 321.015,173.385C317.438,179.944 316.772,187.341 313.543,192.998C301.118,214.773 268.775,231.016 241.628,243.432C220.994,252.87 198.313,267.102 179.052,272.385C166.357,275.867 147.501,278.797 128.617,282.658C101.511,288.202 70.695,290.944 49.23,281.724C38.084,276.937 25.457,265.437 23.079,254.639C17.501,229.31 34.181,186.686 26.815,156.573C21.759,135.903 3.909,121.648 10.003,95.865C15.172,74.001 40.463,75.064 38.023,42.629Z" style="fill:white;"/>
        <path d="M186.523,42.629C181.377,46.821 177.252,52.036 177.184,61.309C173.461,53.847 177.921,43.395 186.523,42.629Z"/>
        <path d="M123.948,53.836C131.661,49.669 133.977,68.556 129.552,73.449C130.161,64.435 129.688,56.502 123.948,53.836Z"/>
        <path d="M258.439,84.657C251.967,92.116 243.099,85.728 234.156,84.657C214.865,82.346 196.343,90.936 182.788,96.799C152.305,81.293 190.878,59.865 221.081,61.309C241.571,62.287 255.368,71.441 258.439,84.657ZM206.138,68.78C196.696,73.969 181.337,73.243 180.92,87.459C194.155,88.242 196.799,78.433 209.873,79.054C208.595,75.662 209.309,70.278 206.138,68.78ZM249.1,80.922C248.119,76.61 244.591,74.846 238.827,75.318C238.269,81.168 246.137,78.592 249.1,80.922Z"/>
        <path d="M135.156,84.657C139.632,83.613 143.726,82.044 147.298,84.657C147.014,91.534 139.401,91.081 135.156,93.997L135.156,111.742C129.897,116.445 122.18,118.691 118.344,124.818C121.479,132.889 127.033,138.544 134.221,142.563C138.851,142.302 140.548,137.018 145.429,139.761C138.612,162.379 120.014,140.488 112.74,131.355C110.21,132.561 109.42,135.506 105.268,135.091C105.716,132.153 103.938,131.44 103.4,129.487C96.096,131.212 93.079,137.223 83.787,136.959C100.72,129.298 112.944,116.928 127.683,107.072L127.683,93.997C115.477,85.033 89.183,90.157 75.381,82.789C83.698,60.844 125.495,70.63 135.156,84.657ZM88.458,79.054C93.032,80.851 100.461,79.872 104.335,78.119C99.76,76.322 92.331,77.302 88.458,79.054Z"/>
        <path d="M262.175,78.119C266.128,76.374 271.846,80.882 278.053,79.987C278.07,84.957 269.898,85.763 265.911,83.723C266.038,81.047 272.322,84.53 272.449,81.855C269.202,80.433 264.614,80.351 262.175,78.119Z"/>
        <path d="M71.646,81.855C48.492,80.036 22.912,89.323 22.146,111.742C22.035,114.991 22.201,122.241 24.948,126.685C29.306,133.736 40.299,130.249 43.627,139.761C26.431,135.632 18.528,125.896 20.278,108.94C22.707,85.399 45.711,76.568 71.646,81.855Z"/>
        <path d="M335.024,98.667C328.519,86.182 314.458,81.252 293.929,82.789C309.887,79.15 332.258,83.12 335.024,98.667Z"/>
        <path d="M262.175,87.459C263.421,84.803 266.328,88.18 267.779,88.394C266.478,91.106 263.17,88.129 262.175,87.459Z"/>
        <path d="M219.213,88.394C228.999,89.985 233.567,100.398 245.364,101.469C259.792,102.779 267.308,92.637 279.921,89.327C314.244,80.319 342.075,112.286 316.346,139.762C312.196,130.497 320.428,125.841 319.148,114.544C317.656,101.388 305.02,92.591 290.195,94.931C285.206,95.719 280.823,101.101 275.252,103.337C255.177,111.395 219.595,110.784 219.213,88.394Z"/>
        <path d="M45.495,90.261C42.302,96.104 28.593,99.505 33.353,116.412C28.624,112.249 33.651,103.5 32.419,96.799C36.929,94.771 41.102,92.406 45.495,90.261Z"/>
        <path d="M84.722,108.007C88.851,106.844 89.815,102.515 95.93,103.337C99.876,115.473 84.175,115.795 72.581,115.479C71.581,110.875 69.639,107.212 66.043,105.205C55.347,104.161 49.001,107.465 39.892,108.008C44.802,88.732 76.079,99.026 84.722,108.007Z"/>
        <path d="M313.543,127.62C308.569,129.439 304.638,127.238 299.534,126.685C296.238,129.276 293.422,135.304 295.798,140.695C283.863,150.933 275.931,169.757 264.043,182.723C234.697,214.736 183.647,228.598 117.41,225.686C95.989,224.745 71.046,222.413 60.438,211.676C43.632,194.667 42.832,141.94 57.636,121.081C59.073,118.159 57.228,111.956 60.438,110.808C67.897,113.378 63.827,124.249 66.042,130.421C70.657,143.285 96.387,151.58 114.608,153.771C182.937,161.982 240.652,126.185 285.524,110.808C286.867,107.481 286.478,102.422 289.26,100.535C294.84,102.483 292.553,107.16 294.864,110.808C299.982,118.893 312.243,119.485 313.543,127.62ZM256.571,133.224L256.571,147.234C274.101,144.216 289.254,138.822 290.194,119.214C274.791,119.688 268.945,129.72 256.571,133.224ZM57.636,143.497C59.928,143.236 61.941,137.924 60.438,136.959C59.663,139.297 57.879,140.628 57.636,143.497ZM205.203,149.102C205.168,155.364 207.599,159.159 208.005,164.979C223.761,158.008 247.721,159.242 249.1,137.894C235.18,138.609 220.17,146.32 205.203,149.102ZM66.976,166.847C67.859,159.931 72.028,150.712 67.91,144.432C64.852,149.008 57.265,163.712 66.976,166.847ZM257.505,174.318C259.878,172.329 263.237,170.849 265.911,167.78C269.51,163.649 276.69,150.988 275.251,150.968C264.421,152.788 248.867,162.037 257.505,174.318ZM77.25,170.582C81.84,169.151 85.388,173.591 87.524,171.517C84.172,165.957 90.797,162.358 90.326,156.574C84.832,156.464 82.463,153.229 78.184,151.904C73.106,155.974 76.713,164.221 77.25,170.582ZM195.863,152.837C184.623,155.607 172.256,157.249 161.306,160.309L161.306,174.319C177.414,175.484 188.185,171.311 200.533,168.715C199.478,162.921 199.495,156.055 195.863,152.837ZM94.061,171.517C102.088,173.764 111.305,174.821 122.08,174.319C121.464,169.844 123.04,164.05 122.08,162.177C113.65,161.267 103.951,161.626 97.797,158.442C96.551,162.799 96.351,168.202 94.061,171.517ZM131.42,162.177C131.644,167.071 129.147,169.243 128.618,173.385C135.556,175.476 146.299,173.761 154.769,174.319L154.769,160.309C145.928,159.874 140.743,163.094 131.42,162.177ZM211.741,178.055C210.421,189.959 217.764,193.201 219.213,202.338C232.416,197.172 241.962,188.351 252.836,180.857C247.523,178.385 247.963,170.163 246.298,164.045C236.302,170.238 224.683,174.807 211.741,178.055ZM168.778,190.196C168.051,199.328 170.095,205.689 169.712,214.478C187.723,215.678 199.009,210.153 211.741,206.073C209.485,196.809 203.606,191.17 203.335,179.922C193.193,184.724 182.508,188.981 168.778,190.196ZM66.042,203.271C65.903,195.938 62.221,192.149 58.57,188.328C60.173,194.196 62.315,199.526 66.042,203.271ZM83.788,211.677C81.657,203.846 79.455,196.085 72.58,192.998C72.037,198.21 75.371,199.546 75.382,204.205C74.802,207.417 70.358,206.098 69.778,207.007C73.072,209.939 78.548,210.689 83.788,211.677ZM133.288,195.8C133.344,203.838 136.393,208.884 136.09,217.281C144.8,216.963 154.963,218.096 162.241,216.346C161.957,212.084 160.693,201.221 161.307,192.997C152.832,194.852 141.989,197.003 133.288,195.8ZM92.193,212.611C95.796,213.989 99.25,215.516 104.335,215.413C103.085,209.191 98.926,205.878 98.731,198.601C93.81,198.541 91.876,195.494 86.589,195.799C87.456,202.192 94.924,205.574 92.193,212.611ZM106.203,197.668C107.894,204.693 112.103,209.202 113.675,216.347C118.09,216.628 125.574,218.736 129.552,216.347C128.68,203.571 121.551,192.951 106.203,197.668Z"/>
        <path d="M197.731,121.082C198.712,132.737 196.233,144.557 184.656,140.695C183.411,132.57 193.076,132.991 191.193,126.685C189.435,120.798 181.551,124.034 174.382,121.081C176.042,109.851 193.845,115.804 197.731,121.082Z"/>
        <path d="M200.533,115.479C204.47,115.318 201.174,117.57 200.533,118.281C203.906,128.776 224.377,116.41 228.553,125.753C220.211,119.987 196.217,130.807 200.533,115.479Z"/>
        <path d="M31.485,117.346C35.188,120.492 37.899,124.631 42.693,126.686C37.045,129.198 31.933,123.141 31.485,117.346Z"/>
        <path d="M180.92,129.487C180.73,132.41 181.55,136.343 179.986,137.893C174.029,133.16 163.214,138.06 154.769,135.091C155.783,124.985 172.876,127.209 180.92,129.487Z"/>
        <path d="M258.439,207.007C259.646,209.199 251.825,210.034 248.166,211.677C221.023,223.862 191.63,245.877 151.033,242.498C197.218,241.051 221.287,217.487 258.439,207.007Z"/>
        <path d="M65.108,225.687C74.462,238.437 92.979,242.024 113.674,243.432C93.812,244.924 68.588,243.69 65.108,225.687Z"/>
        <path d="M161.307,232.225C147.973,232.842 127.493,235.807 112.741,233.159C113.564,233.306 107.42,234.18 110.873,232.225C128.293,233.028 146.332,230.921 161.307,232.225Z"/>
        <path d="M127.684,243.432C131.127,241.272 138.566,243.107 143.561,242.498C140.118,244.658 132.679,242.823 127.684,243.432Z"/>
        <path d="M38.023,42.629C82.539,0.251 168.45,6.151 250.968,7.138C258.816,7.232 267.687,5.77 274.317,7.138C286.188,9.589 299.541,24.161 306.072,35.158C310.917,43.312 313.139,55.173 317.28,62.243C330.365,84.589 363.757,90.151 354.638,129.488C350.399,147.779 330.945,155.181 321.015,173.385C317.438,179.944 316.772,187.341 313.543,192.998C301.118,214.773 268.775,231.016 241.628,243.432C220.994,252.87 198.313,267.102 179.052,272.385C166.357,275.867 147.501,278.797 128.617,282.658C101.511,288.202 70.695,290.944 49.23,281.724C38.084,276.937 25.457,265.437 23.079,254.639C17.501,229.31 34.181,186.686 26.815,156.573C21.759,135.903 3.909,121.648 10.003,95.865C15.172,74.001 40.463,75.064 38.023,42.629ZM346.232,130.422C356.642,101.604 332.132,76.832 298.599,78.119C304.789,76.011 311.439,78.085 318.212,78.119C301.984,58.202 298.054,17.159 264.042,13.676C216.992,8.857 155.805,15.138 110.872,19.28C142.183,27.484 175.985,13.408 208.939,16.478C239.35,19.312 260.687,37.81 277.119,51.969C257.875,41.217 237.79,21.121 208.005,18.346C183.239,16.038 165.727,22.774 144.495,23.95C127.481,24.892 109.8,20.554 94.995,22.082C77.603,23.878 47.986,38.727 43.627,51.97C42.039,56.793 43.769,62.716 41.759,67.847C34.619,86.078 9.393,91.126 18.41,122.017C20.92,130.617 27.702,135.572 30.552,141.631C38.945,159.478 35.564,188.232 33.354,209.811C31.973,223.295 27.996,238.879 30.552,251.839C37.395,286.525 104,281.302 136.091,273.32C147.56,270.466 157.68,265.113 166.912,263.98C170.969,263.482 175.354,265.167 181.856,263.98C191.009,262.308 203.808,252.583 214.544,247.168C246.41,231.099 289.554,216.826 307.007,189.262C311.468,182.216 313.147,170.789 316.347,164.979C318.594,160.899 324.758,160.083 323.819,154.706C324.218,156.211 320.337,157.84 320.083,155.64C331.436,150.569 342.594,140.495 346.232,130.422Z"/>
        <path d="M77.25,36.091C84.691,22.945 107.224,33.115 124.882,33.289C150.949,33.547 176.619,25.147 200.533,26.751C229.346,28.684 255.497,42.389 269.647,59.44C251.079,44.94 224.356,28.424 188.391,28.619C169.338,28.723 149.811,36.253 124.881,35.157C106.123,34.332 89.279,27.845 77.25,36.091Z"/>
        <path d="M182.788,39.827C180.477,39.945 181.2,38.683 182.788,38.892C214.834,36.044 246.673,40.829 257.505,62.242C243.382,43.987 216.276,38.717 182.788,39.827Z"/>
        <path d="M134.222,48.232C116.583,42.421 80.068,39.956 74.448,61.308C71.786,48.302 92.691,40.907 112.74,41.694C120.785,42.011 131.524,42.773 134.222,48.232Z"/>
        <path d="M315.411,148.167C334.469,145.012 338.349,122.064 335.024,99.601C340.854,112.794 335.53,126.208 334.09,139.762C328.267,142.967 324.55,148.277 315.411,148.167Z"/>
        <path d="M47.363,228.488C49.492,229.783 47.711,234.989 48.297,237.828C83.89,267.472 165.405,250.659 207.071,236.894C232.942,228.347 255.054,213.704 278.986,207.006C240.048,233.756 154.734,260.654 83.787,255.572C67.182,254.384 43.721,247.924 47.363,228.488Z"/>
    </g>
</svg>
